<?xml version="1.0" encoding="UTF-8"?>
<svg id="Capa_1" data-name="Capa 1" xmlns="http://www.w3.org/2000/svg" xmlns:xlink="http://www.w3.org/1999/xlink" viewBox="0 0 1000 1000">
  <defs>
    <style>
      .cls-1 {
        clip-path: url(#clippath-2);
      }

      .cls-2 {
        fill: #ffec00;
      }

      .cls-2, .cls-3, .cls-4, .cls-5, .cls-6 {
        stroke-width: 0px;
      }

      .cls-3, .cls-7 {
        fill: #00ffce;
      }

      .cls-4 {
        fill: none;
      }

      .cls-5 {
        fill: #0062ff;
      }

      .cls-8 {
        clip-path: url(#clippath-1);
      }

      .cls-9 {
        clip-path: url(#clippath);
      }

      .cls-6 {
        fill: #ff1717;
      }
    </style>
    <clipPath id="clippath">
      <path class="cls-3" d="m500,820.24c-171.06,0-310.24-139.17-310.24-310.24S328.94,199.76,500,199.76s310.24,139.17,310.24,310.24-139.17,310.24-310.24,310.24Zm0-597.14c-158.2,0-286.9,128.7-286.9,286.9s128.7,286.9,286.9,286.9,286.9-128.7,286.9-286.9-128.7-286.9-286.9-286.9Z"/>
    </clipPath>
    <clipPath id="clippath-1">
      <path class="cls-4" d="m500,1000c-133.55,0-259.12-52.01-353.55-146.45C52.01,759.12,0,633.55,0,500S52.01,240.88,146.45,146.45C240.88,52.01,366.45,0,500,0s259.12,52.01,353.55,146.45c94.44,94.44,146.45,220,146.45,353.55s-52.01,259.12-146.45,353.55c-94.44,94.44-220,146.45-353.55,146.45Zm0-950c-248.13,0-450,201.87-450,450s201.87,450,450,450,450-201.87,450-450S748.13,50,500,50Z"/>
    </clipPath>
    <clipPath id="clippath-2">
      <path class="cls-4" d="m510.83-51.67C206.62-51.67-40,194.95-40,499.17s246.62,550.83,550.83,550.83,550.83-246.62,550.83-550.83S815.05-51.67,510.83-51.67Zm-.76,917.1c-200.36,0-362.78-162.42-362.78-362.78S309.71,139.86,510.07,139.86s362.78,162.42,362.78,362.78-162.42,362.78-362.78,362.78Z"/>
    </clipPath>
  </defs>
  <g>
    <path class="cls-7" d="m500,820.24c-171.06,0-310.24-139.17-310.24-310.24S328.94,199.76,500,199.76s310.24,139.17,310.24,310.24-139.17,310.24-310.24,310.24Zm0-597.14c-158.2,0-286.9,128.7-286.9,286.9s128.7,286.9,286.9,286.9,286.9-128.7,286.9-286.9-128.7-286.9-286.9-286.9Z"/>
    <g class="cls-9">
      <g>
        <rect class="cls-3" x="-284.37" y="392.14" width="1505" height="313.33"/>
        <rect class="cls-3" x="-284.37" y="705.47" width="1505" height="418.33"/>
        <rect class="cls-3" x="-284.37" y="-26.2" width="1505" height="418.33"/>
      </g>
    </g>
  </g>
  <g>
    <path class="cls-3" d="m145.45,461.95l-45.71-6.8-2.67,17.98-8.52-1.27,6.85-46.02,8.52,1.27-2.67,17.98,45.71,6.8-1.5,10.07Z"/>
    <path class="cls-3" d="m154.33,415.18l-51.93-17.61,7.25-21.36c1.56-4.6,3.64-8.29,6.24-11.08,2.6-2.79,5.59-4.6,8.96-5.44,3.37-.84,6.96-.62,10.77.67,3.81,1.29,6.78,3.29,8.92,6.01,2.14,2.71,3.38,5.96,3.73,9.74.34,3.78-.26,7.98-1.82,12.57l-5.43,16.02-2.92-5.79,19.51,6.62-3.27,9.64Zm-15.2-15.91l-6.06,2.74,5.28-15.58c1.44-4.25,1.61-7.77.51-10.54-1.1-2.77-3.28-4.71-6.55-5.82-3.31-1.12-6.22-.91-8.74.64-2.51,1.55-4.49,4.45-5.93,8.7l-5.28,15.58-3.29-5.91,30.04,10.19Zm26.72-18.07l-23.3,6.74,3.5-10.31,23.32-6.81-3.52,10.39Z"/>
    <path class="cls-3" d="m174.85,357.75l-35.24-48.72,5-8.69,59.87,5.87-5.31,9.24-53.43-6.23,2.03-3.53,32.31,42.97-5.23,9.1Zm-5.34-16.17l-5.56-6.36,14.76-25.67,8.29,1.6-17.49,30.42Z"/>
    <path class="cls-3" d="m215.64,291.59l-41.1-36.3,5.55-6.28,54.41,2.17-2.75,3.11-31.65-27.95,6.69-7.57,41.1,36.3-5.55,6.28-54.41-2.17,2.75-3.11,31.65,27.95-6.69,7.57Z"/>
    <path class="cls-3" d="m281.4,227.82c-3.39,2.62-7,4.65-10.85,6.08-3.85,1.43-7.27,2.08-10.27,1.96l-2.06-8.41c2.79.02,5.82-.51,9.08-1.58,3.26-1.07,6.24-2.65,8.92-4.73,2.27-1.76,3.92-3.43,4.94-5.01,1.02-1.58,1.53-3.05,1.54-4.41,0-1.36-.41-2.57-1.24-3.65-1.02-1.32-2.32-2.02-3.89-2.09-1.57-.07-3.3.24-5.17.93-1.88.69-3.89,1.54-6.05,2.55-2.16,1.01-4.37,1.95-6.64,2.81-2.27.87-4.5,1.44-6.7,1.72-2.19.28-4.34.04-6.44-.71-2.1-.75-4.05-2.28-5.84-4.59-1.82-2.35-2.86-5-3.12-7.93-.26-2.94.45-5.99,2.11-9.17,1.67-3.18,4.48-6.3,8.45-9.37,2.6-2.01,5.44-3.68,8.51-5,3.07-1.32,6.04-2.1,8.89-2.33l2.31,8.22c-2.84.35-5.5,1.04-8,2.08-2.5,1.04-4.69,2.3-6.59,3.77-2.23,1.73-3.83,3.4-4.79,5s-1.44,3.09-1.4,4.45c.03,1.36.48,2.6,1.34,3.72,1.02,1.32,2.31,2.02,3.86,2.11,1.55.09,3.26-.23,5.12-.94,1.86-.71,3.89-1.57,6.08-2.58,2.19-1.01,4.42-1.95,6.67-2.84,2.25-.89,4.47-1.48,6.65-1.78,2.18-.3,4.31-.07,6.39.7,2.08.77,4,2.29,5.76,4.56,1.79,2.31,2.82,4.94,3.08,7.87s-.45,6-2.15,9.19c-1.69,3.19-4.52,6.32-8.48,9.39Z"/>
    <path class="cls-3" d="m316.79,201.98l-25.25-48.67,20.03-10.39c4.31-2.24,8.37-3.46,12.17-3.67,3.8-.21,7.21.55,10.23,2.28,3.02,1.73,5.45,4.38,7.3,7.95,1.85,3.57,2.62,7.09,2.29,10.55-.32,3.46-1.66,6.69-4.03,9.68-2.36,2.99-5.7,5.6-10.01,7.84l-15.02,7.79,1.83-6.33,9.49,18.29-9.04,4.69Zm.06-22l-6.31-2.29,14.6-7.58c3.99-2.07,6.55-4.47,7.69-7.21,1.14-2.74.91-5.64-.67-8.7-1.61-3.11-3.86-4.97-6.74-5.59-2.88-.62-6.32.1-10.3,2.17l-14.6,7.57,1.72-6.54,14.61,28.16Z"/>
    <path class="cls-3" d="m403.22,166.34c-4.12,1.16-8.11,1.55-11.96,1.17-3.85-.38-7.4-1.43-10.65-3.15-3.25-1.72-6.04-4.02-8.37-6.92-2.33-2.89-4.05-6.31-5.16-10.23-1.1-3.92-1.41-7.73-.93-11.41.48-3.69,1.66-7.11,3.54-10.27,1.88-3.16,4.36-5.9,7.45-8.24,3.09-2.33,6.67-4.07,10.74-5.22,4.12-1.16,8.1-1.55,11.92-1.16,3.82.39,7.36,1.44,10.61,3.16,3.25,1.72,6.04,4.02,8.37,6.92,2.33,2.9,4.05,6.31,5.16,10.23,1.1,3.92,1.42,7.74.94,11.45-.47,3.71-1.65,7.14-3.54,10.27-1.88,3.13-4.36,5.86-7.42,8.19-3.06,2.33-6.63,4.06-10.7,5.21Zm-2.49-8.57c2.66-.75,5-1.89,7.01-3.44,2.01-1.54,3.6-3.39,4.79-5.54,1.19-2.15,1.93-4.48,2.23-6.97.3-2.5.07-5.11-.69-7.82-.76-2.71-1.92-5.06-3.48-7.03-1.56-1.97-3.4-3.57-5.54-4.79-2.13-1.22-4.46-1.96-6.97-2.23-2.52-.27-5.11-.03-7.77.72-2.67.75-4.99,1.89-6.97,3.43-1.98,1.53-3.58,3.38-4.79,5.54-1.21,2.16-1.97,4.49-2.27,6.99-.3,2.5-.07,5.1.69,7.82.75,2.67,1.91,5,3.47,7,1.57,2,3.42,3.61,5.55,4.83,2.13,1.22,4.46,1.96,6.97,2.23,2.52.27,5.11.03,7.77-.72Z"/>
    <path class="cls-3" d="m453.33,154.67l-3.85-54.7,22.5-1.58c4.84-.34,9.05.15,12.63,1.47,3.57,1.32,6.4,3.37,8.48,6.16,2.08,2.79,3.26,6.18,3.54,10.2.28,4.01-.41,7.53-2.08,10.55-1.67,3.02-4.19,5.42-7.54,7.21-3.36,1.78-7.46,2.84-12.3,3.18l-16.88,1.19,4.21-4.93,1.45,20.55-10.16.71Zm8.79-20.17l-4.87-4.53,16.41-1.15c4.48-.32,7.79-1.52,9.92-3.6,2.13-2.08,3.07-4.85,2.83-8.29-.25-3.49-1.57-6.09-3.96-7.81-2.4-1.72-5.84-2.42-10.32-2.1l-16.41,1.15,4.18-5.32,2.22,31.65Zm27,17.65l-15.23-18.87,10.86-.76,15.31,18.87-10.94.77Z"/>
    <path class="cls-3" d="m532.46,153.7l4.79-45.97-18.07-1.88.89-8.57,46.28,4.82-.89,8.57-18.08-1.88-4.79,45.97-10.13-1.06Z"/>
    <path class="cls-3" d="m628.28,176.81c-4-1.54-7.6-3.59-10.81-6.15-3.21-2.56-5.54-5.15-6.99-7.78l6.14-6.11c1.42,2.4,3.44,4.72,6.05,6.95,2.61,2.24,5.49,3.97,8.66,5.19,2.68,1.04,4.96,1.58,6.84,1.63,1.88.06,3.4-.27,4.57-.96,1.16-.7,1.99-1.68,2.48-2.95.6-1.56.53-3.03-.23-4.41-.76-1.38-1.91-2.7-3.47-3.94-1.56-1.25-3.33-2.53-5.31-3.86-1.98-1.32-3.93-2.73-5.84-4.23-1.91-1.49-3.56-3.11-4.93-4.84-1.38-1.73-2.28-3.69-2.73-5.88-.44-2.19-.14-4.64.91-7.37,1.07-2.78,2.8-5.04,5.18-6.78,2.38-1.74,5.36-2.72,8.94-2.93,3.58-.21,7.71.58,12.39,2.39,3.07,1.18,5.96,2.75,8.68,4.7,2.72,1.95,4.92,4.08,6.6,6.41l-5.85,6.22c-1.76-2.25-3.74-4.17-5.92-5.77-2.18-1.6-4.39-2.83-6.63-3.7-2.63-1.02-4.88-1.52-6.76-1.52-1.88,0-3.39.37-4.54,1.1-1.15.73-1.98,1.75-2.49,3.07-.6,1.56-.54,3.03.19,4.4.73,1.37,1.88,2.67,3.45,3.89,1.57,1.22,3.35,2.51,5.35,3.87,2,1.36,3.95,2.77,5.88,4.24,1.92,1.47,3.58,3.06,4.96,4.77,1.38,1.71,2.29,3.65,2.7,5.83.42,2.18.11,4.61-.92,7.28-1.05,2.73-2.77,4.96-5.15,6.7-2.38,1.74-5.37,2.71-8.98,2.92-3.61.2-7.75-.6-12.42-2.4Z"/>
    <path class="cls-3" d="m681.83,191.88l26.48,16.01-4.42,7.31-35.19-21.28,28.38-46.92,34.25,20.71-4.42,7.31-25.54-15.45-19.54,32.31Zm11.49-20.51l23.33,14.11-4.34,7.17-23.33-14.11,4.34-7.17Z"/>
    <path class="cls-3" d="m722.26,228.89l36.52-40.91,16.83,15.02c3.62,3.23,6.21,6.59,7.76,10.07,1.55,3.48,2.05,6.94,1.5,10.37-.55,3.43-2.16,6.65-4.83,9.65-2.68,3-5.68,4.95-9.02,5.87-3.33.91-6.81.78-10.42-.38-3.62-1.16-7.24-3.36-10.86-6.6l-12.62-11.27,6.47-.42-13.72,15.37-7.6-6.78Zm20.59-7.77l-.15-6.65,12.27,10.96c3.35,2.99,6.52,4.52,9.5,4.59,2.98.07,5.62-1.18,7.92-3.75,2.33-2.61,3.27-5.37,2.83-8.29-.44-2.92-2.34-5.87-5.69-8.86l-12.27-10.95,6.73-.72-21.13,23.67Zm6.18,31.66l2.91-24.08,8.12,7.25-2.85,24.13-8.18-7.3Z"/>
    <path class="cls-3" d="m781.63,289.37l29.07-52.31,6.7,8.78-26.47,47.07-3.85-5.05,52.54-12.87,6.17,8.1-58.09,14.24-6.08-7.97Z"/>
    <path class="cls-3" d="m810.53,332.22l47.95-26.6,4.94,8.91-47.95,26.6-4.94-8.9Z"/>
    <path class="cls-3" d="m835.92,388.97c-1.46-3.91-2.17-7.79-2.13-11.62.04-3.84.79-7.43,2.24-10.79,1.45-3.36,3.53-6.32,6.25-8.9,2.72-2.58,5.98-4.58,9.8-6.01,3.82-1.43,7.59-2.06,11.33-1.9,3.74.16,7.26,1.05,10.57,2.65,3.3,1.61,6.23,3.83,8.77,6.67,2.54,2.84,4.55,6.24,6.03,10.21,1.57,4.21,2.29,8.32,2.14,12.33-.14,4.01-1.19,7.75-3.13,11.21l-8.1-4c1.31-2.61,2.04-5.25,2.18-7.92.14-2.67-.29-5.36-1.3-8.05-1.01-2.69-2.36-4.98-4.08-6.88-1.71-1.9-3.68-3.36-5.91-4.4-2.23-1.04-4.61-1.59-7.15-1.67-2.54-.08-5.13.37-7.77,1.36-2.64.99-4.89,2.35-6.76,4.08-1.86,1.73-3.29,3.71-4.3,5.96-1,2.24-1.53,4.64-1.57,7.2-.05,2.56.43,5.18,1.44,7.87,1.01,2.69,2.44,5,4.3,6.92,1.86,1.92,4.17,3.43,6.92,4.52l-3.56,8.36c-3.68-1.36-6.91-3.49-9.68-6.42-2.77-2.92-4.94-6.51-6.54-10.77Z"/>
    <path class="cls-3" d="m859.38,438.48l5.28,30.49-8.41,1.46-7.02-40.52,54.03-9.36,6.83,39.44-8.41,1.46-5.09-29.41-37.2,6.45Zm23.02-4.78l4.65,26.86-8.26,1.43-4.65-26.86,8.26-1.43Z"/>
  </g>
  <g>
    <path class="cls-3" d="m273.7,857.59l25-48.8,7.46,3.82,3.08,46.56-3.9-2,39.24-24.88,7.46,3.82-24.93,48.84-8.57-4.39,18.04-35.38,1.81.93-33.1,20.62-4.05-2.07-2.87-39.06,2.09,1.07-18.11,35.35-8.65-4.43Z"/>
    <path class="cls-3" d="m362.49,888.17l29.56,9.14-2.52,8.16-39.29-12.15,16.19-52.39,38.25,11.82-2.52,8.16-28.52-8.82-11.15,36.07Zm6.19-22.68l26.04,8.05-2.48,8.01-26.04-8.05,2.48-8.01Z"/>
    <path class="cls-3" d="m409.65,910.19l7.68-54.29,23.74,3.36c5.9.83,10.9,2.7,15.03,5.61,4.12,2.9,7.14,6.55,9.05,10.93,1.91,4.38,2.48,9.32,1.71,14.8-.77,5.43-2.68,10-5.73,13.71-3.06,3.71-6.97,6.39-11.74,8.03-4.77,1.65-10.1,2.05-15.99,1.22l-23.74-3.36Zm11.29-7.11l13.19,1.87c4.09.58,7.72.3,10.92-.83,3.19-1.13,5.8-2.98,7.82-5.54s3.3-5.7,3.82-9.43c.53-3.77.18-7.16-1.06-10.16-1.24-3-3.23-5.48-5.99-7.45-2.75-1.97-6.17-3.25-10.26-3.82l-13.19-1.86-5.26,37.23Z"/>
    <path class="cls-3" d="m493.14,909.43l30.94-.57.16,8.54-41.12.76-1.02-54.82,40.02-.75.16,8.54-29.84.55.7,37.75Zm-1.22-23.48l27.25-.51.16,8.38-27.25.51-.16-8.38Z"/>
    <path class="cls-3" d="m543.97,915.26l-8.45-54.18,10.06-1.57,7.12,45.66,28.33-4.42,1.33,8.51-38.39,5.99Z"/>
    <path class="cls-3" d="m598.18,905.3l-15.31-52.65,9.78-2.85,12.91,44.38,27.53-8.01,2.41,8.27-37.31,10.85Z"/>
    <path class="cls-3" d="m649.63,888.64l-20.45-50.88,9.45-3.8,20.45,50.88-9.45,3.8Z"/>
    <path class="cls-3" d="m680.08,876.19l-26.32-48.1,7.35-4.03,50.44,20.53-3.64,1.99-20.27-37.04,8.86-4.85,26.32,48.1-7.35,4.02-50.43-20.53,3.64-1.99,20.27,37.04-8.87,4.85Z"/>
  </g>
  <path class="cls-3" d="m341.92,373.81v99.54h100.24v110.44h82.2v77.45h-53.72v-46.65h-28.48v77.55h110.69v-139.25h-79.01v-77.45h47.31v46.65h31.7v-48.74h100.23v-99.54h-311.17Zm282.52,70.89h-253.86v-42.24h253.86v42.24Z"/>
  <g class="cls-8">
    <g class="cls-1">
      <g>
        <rect class="cls-2" x="-99.25" y="-78.53" width="1219.56" height="623.43"/>
        <rect class="cls-5" x="-101.53" y="461.52" width="1224.11" height="372.35"/>
        <rect class="cls-6" x="-101.53" y="761.64" width="1224.11" height="372.35"/>
      </g>
    </g>
  </g>
</svg>