<svg id="Layer_1" data-name="Layer 1" xmlns="http://www.w3.org/2000/svg" xmlns:xlink="http://www.w3.org/1999/xlink" viewBox="0 0 1000 1000"><defs><style>.cls-1{fill:url(#linear-gradient);}</style><linearGradient id="linear-gradient" x1="75.4" y1="500" x2="924.6" y2="500" gradientUnits="userSpaceOnUse"><stop offset="0" stop-color="#b440ff"/><stop offset="0.07" stop-color="#c84df8"/><stop offset="0.17" stop-color="#e05def"/><stop offset="0.28" stop-color="#f168e9"/><stop offset="0.4" stop-color="#fc6fe5"/><stop offset="0.54" stop-color="#ff71e4"/><stop offset="0.61" stop-color="#ff6ad2"/><stop offset="0.73" stop-color="#ff59a3"/><stop offset="0.91" stop-color="#ff3d58"/><stop offset="1" stop-color="#ff2e2e"/></linearGradient></defs><path class="cls-1" d="M906.08,305.76q9.13-.86,18.52-.85M807.11,287.32q-58.51-.06-117,0c-12.35,0-24.65,0-37,0A205.42,205.42,0,0,0,500,378.81a205.42,205.42,0,0,0-153.13-91.49c-12.35,0-24.65,0-37,0q-58.46-.06-117,0-58.69.06-117.47.2a71,71,0,0,0,3.47,18.6,70,70,0,0,0,18,29.08c19.45,18.8,42.76,19.77,47.89,19.85H328.34A137.15,137.15,0,1,1,207,428.35c.45-.73.85-1.45,1.21-2.18,0-.08.08-.2.12-.28a34.34,34.34,0,0,0-60-33.28c-.29.52-.57,1-.85,1.53l-1.09,2.06a204.52,204.52,0,0,0-23.76,96C122.6,605.85,214.7,698,328.34,698a204.47,204.47,0,0,0,123.52-41.23l7.06,10,27.76,39.42c6.13,8.71,19.68,8.71,25.82,0l27.75-39.42,7.34-10.44a204.46,204.46,0,0,0,124,41.63c113.64,0,205.74-92.1,205.74-205.74a204.52,204.52,0,0,0-23.76-96l-1.09-2.06c-.28-.52-.56-1-.85-1.53a34.34,34.34,0,0,0-60,33.28c0,.08.08.2.12.28.36.73.76,1.45,1.21,2.18a137.16,137.16,0,1,1-121.39-73.3H855.19c5.13-.08,28.44-1.05,47.89-19.85a70,70,0,0,0,18-29.08,71,71,0,0,0,3.47-18.6Q865.83,287.4,807.11,287.32ZM323,435.31a56.62,56.62,0,1,0,56.62,56.62A56.62,56.62,0,0,0,323,435.31Zm346.35,0a56.62,56.62,0,1,0,56.63,56.62A56.62,56.62,0,0,0,669.3,435.31Z"/></svg>