<svg id="Layer_1" data-name="Layer 1" xmlns="http://www.w3.org/2000/svg" xmlns:xlink="http://www.w3.org/1999/xlink" viewBox="0 0 1000 1000"><defs><style>.cls-1{fill:url(#linear-gradient);}</style><linearGradient id="linear-gradient" x1="245.17" y1="518" x2="754.83" y2="518" gradientUnits="userSpaceOnUse"><stop offset="0" stop-color="#b440ff"/><stop offset="0.07" stop-color="#c84df8"/><stop offset="0.17" stop-color="#e05def"/><stop offset="0.28" stop-color="#f168e9"/><stop offset="0.4" stop-color="#fc6fe5"/><stop offset="0.54" stop-color="#ff71e4"/><stop offset="0.61" stop-color="#ff6ad2"/><stop offset="0.73" stop-color="#ff59a3"/><stop offset="0.91" stop-color="#ff3d58"/><stop offset="1" stop-color="#ff2e2e"/></linearGradient></defs><path class="cls-1" d="M743.71,401.43c3.66-.34,7.36-.51,11.12-.51m-70.52-10.56q-35.12,0-70.21,0c-7.41,0-14.79,0-22.2,0A123.3,123.3,0,0,0,500,445.27a123.27,123.27,0,0,0-91.9-54.91c-7.41,0-14.79,0-22.2,0q-35.08,0-70.21,0t-70.51.12a42.91,42.91,0,0,0,2.09,11.16,42.06,42.06,0,0,0,10.82,17.46A43.14,43.14,0,0,0,286.82,431H397a82.32,82.32,0,1,1-72.85,44c.26-.44.5-.87.72-1.31,0-.05,0-.12.08-.17a20.62,20.62,0,0,0-36-20c-.17.31-.34.6-.5.92l-.66,1.23A123.48,123.48,0,0,0,471.11,612.06l4.24,6L492,641.74a9.62,9.62,0,0,0,15.5,0l16.66-23.66,4.4-6.27A123.48,123.48,0,0,0,712.23,455.7l-.66-1.23c-.17-.32-.34-.61-.51-.92a20.61,20.61,0,0,0-36,20c0,.05.05.12.08.17.21.44.46.87.72,1.31A82.32,82.32,0,1,1,603,431H713.17a43.14,43.14,0,0,0,28.74-11.91,42.06,42.06,0,0,0,10.82-17.46,42.73,42.73,0,0,0,2.08-11.16Q719.55,390.41,684.31,390.36ZM393.74,479.18a34,34,0,1,0,34,34A34,34,0,0,0,393.74,479.18Zm207.87,0a34,34,0,1,0,34,34A34,34,0,0,0,601.61,479.18Z"/></svg>